<svg fill="none" xmlns="http://www.w3.org/2000/svg" viewBox="0 0 32 32">
    <g clip-path="url(#a)">
        <path fill="#F7A278" d="M0 0H32V32H0z"/>
        <path
            d="M24.5 5.5L29 5L33 5.5L34 10.5L31.5 14.5L33.5 15.5L36 14.5V35H16L17.5 31L23 27L25.5 19L22.5 17.5L15.5 14.5L12 7L13.5 6L16.5 10L22 14.5L25 15.5L26 14.5L23 9.5L24.5 5.5Z"
            fill="#CFE0C3"/>
        <path
            d="M6 27L11.5 32H-3V0H25.5L16 2L8 3L5 6L8 7.5L9 6L10 5.5L12 6L11 7.5L10 8H8.5L10.5 9.5L9.5 10.5L4 7.5L2 14.5V19.5L6 27Z"
            fill="#CFE0C3"/>
        <path d="M9.5 11.5V10.5L9 11.5L7.5 12.5V13.5L8 14.5L9 15L9.5 14.5L10 15L11 14V12L9.5 11.5Z" fill="#CFE0C3"/>
    </g>
    <defs>
        <clipPath id="a">
            <path fill="#fff" d="M0 0H32V32H0z"/>
        </clipPath>
    </defs>
</svg>
